# xmcd CD database file
#
# Track frame offsets:
#	150
#	7241
#	27651
#	53888
#	78185
#	104692
#	132130
#	153616
#	172746
#	179533
#	200213
#	224865
#	247285
#	270063
#	283449
#	327198
#	332878
#
# Disc length: 4634 seconds
#
# Revision: 0
# Processed by: cddbd v1.5.2PL0 Copyright (c) Steve Scherf et al.
# Submitted via: CDex 1.51
#
DISCID=0f121811
DTITLE=Al DiMeola - Unknown
DYEAR=1900
DGENRE=New Age
TTITLE0=Winterlude No. 4
TTITLE1=Mehdi - Rays Of Love
TTITLE2=Mehdi - Bridge to Eternity
TTITLE3=Mehdi - Freedom
TTITLE4=Mehdi - City of Clouds
TTITLE5=Mehdi - Falling Leaves
TTITLE6=Mehdi - Lost In Paradise
TTITLE7=Al DiMeola - Carol of the Bells
TTITLE8=Al DiMeola - Winterlude Duet No. 1
TTITLE9=Al DiMeola - Have Yourself a Merry Little C
TTITLE10=Mehdi - Dusk to Dawn
TTITLE11=Kitaro - Caravansary
TTITLE12=Kitaro - Sunset
TTITLE13=Kitaro - A Drop Of Silence
TTITLE14=Kitaro - Island Of Life
TTITLE15=Kitaro - Destiny
TTITLE16=Al DiMeola - The First Noel
EXTD=
EXTT0=
EXTT1=
EXTT2=
EXTT3=
EXTT4=
EXTT5=
EXTT6=
EXTT7=
EXTT8=
EXTT9=
EXTT10=
EXTT11=
EXTT12=
EXTT13=
EXTT14=
EXTT15=
EXTT16=
PLAYORDER=
